<!DOCTYPE svg PUBLIC "-//W3C//DTD SVG 1.1//EN" "http://www.w3.org/Graphics/SVG/1.1/DTD/svg11.dtd">
<!-- Uploaded to: SVG Repo, www.svgrepo.com, Transformed by: SVG Repo Mixer Tools -->
<svg fill="#ffffff" height="800px" width="800px" version="1.1" id="Layer_1" xmlns="http://www.w3.org/2000/svg" xmlns:xlink="http://www.w3.org/1999/xlink" viewBox="0 0 512 512" xml:space="preserve" stroke="#ffffff">
<g id="SVGRepo_bgCarrier" stroke-width="0"/>
<g id="SVGRepo_tracerCarrier" stroke-linecap="round" stroke-linejoin="round"/>
<g id="SVGRepo_iconCarrier"> <g> <g> <path d="M420.918,85.61H297.186V10.199C297.186,4.566,292.62,0,286.987,0h-61.975c-5.633,0-10.199,4.566-10.199,10.199V85.61 H91.082c-5.633,0-10.199,4.566-10.199,10.199v405.992c0,5.633,4.566,10.199,10.199,10.199h329.836 c5.633,0,10.199-4.566,10.199-10.199V95.809C431.117,90.176,426.551,85.61,420.918,85.61z M235.212,20.398h41.577v105.128h-41.577 V20.398z M410.718,491.602H101.281V106.008h113.531v19.518h-25.253c-5.633,0-10.199,4.566-10.199,10.199 c0,5.633,4.566,10.199,10.199,10.199h132.88c5.633,0,10.199-4.566,10.199-10.199s-4.566-10.199-10.199-10.199h-25.253v-19.518 h113.531V491.602z"/> </g> </g> <g> <g> <path d="M352.611,425.424h-11.533c-5.633,0-10.199,4.566-10.199,10.199c0,5.633,4.566,10.199,10.199,10.199h11.533 c5.633,0,10.199-4.566,10.199-10.199C362.81,429.99,358.244,425.424,352.611,425.424z"/> </g> </g> <g> <g> <path d="M296.967,425.424H159.389c-5.633,0-10.199,4.566-10.199,10.199c0,5.633,4.566,10.199,10.199,10.199h137.578 c5.633,0,10.199-4.566,10.199-10.199C307.166,429.99,302.599,425.424,296.967,425.424z"/> </g> </g> <g> <g> <path d="M352.639,174.372H159.361c-5.633,0-10.199,4.566-10.199,10.199V377.85c0,5.633,4.566,10.199,10.199,10.199h193.279 c5.633,0,10.199-4.566,10.199-10.199V184.571C362.839,178.938,358.272,174.372,352.639,174.372z M342.44,367.651H169.56V194.77 H342.44V367.651z"/> </g> </g> <g> <g> <path d="M286.518,279.275c5.376-6.701,8.603-15.197,8.603-24.436c0-21.571-17.55-39.121-39.121-39.121 s-39.121,17.55-39.121,39.121c0,9.24,3.227,17.735,8.603,24.436c-24.716,9.571-41.893,30.376-41.893,54.457 c0,5.633,4.566,10.199,10.199,10.199h124.424c5.633,0,10.199-4.566,10.199-10.199 C328.411,309.651,311.235,288.847,286.518,279.275z M256,236.116c10.324,0,18.723,8.399,18.723,18.723 c0,10.325-8.399,18.724-18.723,18.724c-10.324,0-18.723-8.399-18.723-18.724C237.277,244.515,245.676,236.116,256,236.116z M205.729,323.533c5.916-16.95,26.212-29.474,50.271-29.474s44.355,12.525,50.271,29.474H205.729z"/> </g> </g> <g> <g> <path d="M256,30.136c-5.633,0-10.199,4.566-10.199,10.199v2.229c0,5.633,4.566,10.199,10.199,10.199 c5.633,0,10.199-4.566,10.199-10.199v-2.229C266.199,34.702,261.633,30.136,256,30.136z"/> </g> </g> </g>
</svg>