<svg width="585" height="559" viewBox="0 0 585 559" fill="none" xmlns="http://www.w3.org/2000/svg">
<path d="M552.333 206.667L491 40C487.127 28.5347 479.787 18.557 469.99 11.45C460.197 4.34301 448.433 0.45801 436.333 0.333344H149.667C137.727 0.36001 126.083 4.05034 116.307 10.9053C106.531 17.7603 99.0937 27.4503 95 38.6667L33.6667 205.333C23.8243 210.044 15.491 217.405 9.60267 226.59C3.714 235.777 0.504005 246.423 0.333338 257.333V407.333C0.142005 417.083 2.42634 426.723 6.97367 435.353C11.5207 443.98 18.1813 451.313 26.3333 456.667V458.667V525.333C26.3333 534.173 29.8453 542.653 36.0963 548.903C42.3477 555.153 50.826 558.667 59.6667 558.667H93C101.841 558.667 110.319 555.153 116.57 548.903C122.821 542.653 126.333 534.173 126.333 525.333V467H459.667V525.333C459.667 534.173 463.18 542.653 469.43 548.903C475.68 555.153 484.16 558.667 493 558.667H526.333C535.173 558.667 543.653 555.153 549.903 548.903C556.153 542.653 559.667 534.173 559.667 525.333V458.667C559.667 458.667 559.667 458.667 559.667 456.667C567.503 451.36 573.917 444.203 578.333 435.833C582.75 427.463 585.04 418.133 585 408.667V258.667C584.89 247.827 581.78 237.23 576.013 228.05C570.247 218.872 562.05 211.47 552.333 206.667ZM534.667 408.667C534.667 410.877 533.79 412.997 532.227 414.56C530.663 416.123 528.543 417 526.333 417H59.6667C57.4563 417 55.337 416.123 53.774 414.56C52.2113 412.997 51.3333 410.877 51.3333 408.667V258.667C51.3333 256.457 52.2113 254.337 53.774 252.773C55.337 251.21 57.4563 250.333 59.6667 250.333H526.333C528.543 250.333 530.663 251.21 532.227 252.773C533.79 254.337 534.667 256.457 534.667 258.667V408.667ZM142 55.6667C142.599 54.1137 143.65 52.7757 145.016 51.825C146.382 50.8747 148.002 50.355 149.667 50.3333H436.333C437.997 50.355 439.617 50.8747 440.983 51.825C442.35 52.7757 443.4 54.1137 444 55.6667L490.667 183.667H95.3333L142 55.6667Z" fill="white"/>
<path d="M159.667 383.667C187.281 383.667 209.667 361.28 209.667 333.667C209.667 306.053 187.281 283.667 159.667 283.667C132.052 283.667 109.667 306.053 109.667 333.667C109.667 361.28 132.052 383.667 159.667 383.667Z" fill="white"/>
<path d="M426.333 383.667C453.947 383.667 476.333 361.28 476.333 333.667C476.333 306.053 453.947 283.667 426.333 283.667C398.72 283.667 376.333 306.053 376.333 333.667C376.333 361.28 398.72 383.667 426.333 383.667Z" fill="white"/>
</svg>
