<svg width="800" height="800" viewBox="0 0 800 800" fill="none" xmlns="http://www.w3.org/2000/svg">
<g clip-path="url(#clip0_44_9)">
<path d="M633.333 666.667C633.333 675.507 629.821 683.986 623.57 690.237C617.319 696.488 608.841 700 600 700H133.333C124.493 700 116.014 696.488 109.763 690.237C103.512 683.986 100 675.507 100 666.667V366.667H1.52588e-05L344.233 53.7333C350.37 48.1493 358.369 45.0548 366.667 45.0548C374.964 45.0548 382.963 48.1493 389.1 53.7333L733.333 366.667H633.333V666.667ZM366.667 500C388.768 500 409.964 491.22 425.592 475.592C441.22 459.964 450 438.768 450 416.667C450 394.565 441.22 373.369 425.592 357.741C409.964 342.113 388.768 333.333 366.667 333.333C344.565 333.333 323.369 342.113 307.741 357.741C292.113 373.369 283.333 394.565 283.333 416.667C283.333 438.768 292.113 459.964 307.741 475.592C323.369 491.22 344.565 500 366.667 500Z" fill="white" stroke="white" stroke-width="33.3333"/>
</g>
<defs>
<clipPath id="clip0_44_9">
<rect width="800" height="800" fill="white"/>
</clipPath>
</defs>
</svg>
