<svg width="97" height="97" viewBox="0 0 97 97" fill="none" xmlns="http://www.w3.org/2000/svg">
<g clip-path="url(#clip0_6_157)">
<path d="M12.1909 93.9675L21.288 93.9502L21.2361 66.6592L12.1391 66.6765L12.1909 93.9675Z" fill="#00D2FF"/>
<path d="M45.5457 93.9042L54.6428 93.887L54.5736 57.4989L45.4766 57.5162L45.5457 93.9042Z" fill="#FFD782"/>
<path d="M28.8677 93.935L37.9648 93.9177L37.8611 39.3358L28.764 39.3531L28.8677 93.935Z" fill="#FF6464"/>
<path d="M62.2235 93.8718L71.3206 93.8545L71.1823 21.0784L62.0852 21.0957L62.2235 93.8718Z" fill="#C3E678"/>
<path d="M78.9004 93.841L87.9974 93.8237L87.8418 11.9508L78.7448 11.9681L78.9004 93.841Z" fill="#9BE6D2"/>
<path d="M21.2855 93.9483L21.251 75.7544L12.1539 75.7717L12.1885 93.9656L21.2855 93.9483Z" fill="#18BDF6"/>
<path d="M37.9622 93.9168L37.8931 57.5288L28.796 57.5461L28.8652 93.9341L37.9622 93.9168Z" fill="#D2555A"/>
<path d="M54.6415 93.8872L54.5896 66.5962L45.4925 66.6135L45.5444 93.9044L54.6415 93.8872Z" fill="#FFC36E"/>
<path d="M71.3176 93.8554L71.2312 48.3704L62.1341 48.3876L62.2205 93.8727L71.3176 93.8554Z" fill="#A5D76E"/>
<path d="M87.9967 93.8255L87.8757 30.1465L78.7787 30.1638L78.8997 93.8428L87.9967 93.8255Z" fill="#78D2BE"/>
<path d="M95.5774 92.3895C95.5765 92.3895 95.5755 92.3895 95.5746 92.3895L89.4151 92.401L89.2642 11.9498C89.2634 11.5727 89.1132 11.2115 88.8458 10.9453C88.5795 10.6799 88.2188 10.5308 87.8427 10.5308C87.8419 10.5308 87.841 10.5308 87.84 10.5308L78.743 10.548C77.9579 10.5495 77.3227 11.187 77.3242 11.9721L77.4754 92.4234L72.7374 92.4323L72.6033 21.0781C72.6025 20.7011 72.4523 20.3398 72.185 20.0736C71.9186 19.8082 71.5577 19.6591 71.1818 19.6591C71.1809 19.6591 71.1799 19.6591 71.1792 19.6591L62.0821 19.6763C61.297 19.6778 60.6618 20.3153 60.6633 21.1004L60.7147 48.3912V48.3916V48.3918L60.7974 92.4547L56.0595 92.4636L56.011 66.5944V66.594V66.5937L55.9939 57.4974C55.9924 56.713 55.3564 56.0786 54.5725 56.0786C54.5715 56.0786 54.5706 56.0786 54.5696 56.0786L45.4728 56.0956C45.0958 56.0964 44.7347 56.2468 44.4685 56.5139C44.2023 56.781 44.0534 57.1427 44.054 57.5197L44.071 66.6156V66.617C44.071 66.617 44.071 66.6179 44.071 66.6183L44.1195 92.4863L39.3815 92.4952L39.3158 57.5294V57.5288V57.5282L39.2817 39.3349C39.2802 38.5506 38.6442 37.9161 37.8602 37.9161C37.8595 37.9161 37.8585 37.9161 37.8576 37.9161L28.7605 37.9331C28.3835 37.9339 28.0224 38.0843 27.7563 38.3514C27.4901 38.6186 27.341 38.9802 27.3417 39.3572L27.4416 92.5177L22.7036 92.5266L22.6722 75.7547V75.7542V75.7536L22.6551 66.6571C22.6544 66.2801 22.5041 65.9188 22.2368 65.6526C21.9702 65.3874 21.6097 65.2381 21.2337 65.2381C21.2329 65.2381 21.2318 65.2381 21.231 65.2381L12.134 65.2554C11.3489 65.2569 10.7136 65.8944 10.7152 66.6795L10.7637 92.549L6.02644 92.5581L6.01204 84.8838V84.8823C6.01204 84.8817 6.01204 84.8813 6.01204 84.8813L5.99499 75.7862V75.7852C5.99499 75.7849 5.99499 75.7847 5.99499 75.7847L5.97794 66.6889V66.6886V66.6882L5.94384 48.4956V48.4946V48.4937L5.92678 39.398V39.3976V39.3972L5.8582 3.00937C5.85669 2.22505 5.2207 1.59058 4.43675 1.59058C4.43581 1.59058 4.43486 1.59058 4.43391 1.59058C3.64883 1.59209 3.0136 2.22959 3.01511 3.01468L3.02951 10.6903L1.41861 10.6933C0.633716 10.695 -0.0015129 11.3325 2.70646e-06 12.1178C0.00151831 12.9019 0.637505 13.5364 1.42145 13.5364C1.4224 13.5364 1.42335 13.5364 1.42429 13.5364L3.0352 13.5334L3.04694 19.7875L1.43604 19.7906C0.650956 19.7921 0.0157271 20.4296 0.0172427 21.2149C0.0187583 21.999 0.654745 22.6335 1.43869 22.6335C1.43964 22.6335 1.44059 22.6335 1.44153 22.6335L3.05244 22.6304L3.06418 28.8846L1.45328 28.8876C0.668196 28.8891 0.0329672 29.5266 0.0344828 30.3119C0.0359984 31.096 0.671985 31.7305 1.45593 31.7305C1.45688 31.7305 1.45783 31.7305 1.45877 31.7305L3.06968 31.7275L3.08142 37.9816L1.47052 37.9847C0.685436 37.9862 0.0502072 38.6237 0.0517228 39.409C0.0532384 40.1931 0.689225 40.8276 1.47317 40.8276C1.47412 40.8276 1.47507 40.8276 1.47601 40.8276L3.08692 40.8245L3.09866 47.0787L1.48795 47.0817C0.702866 47.0832 0.0676367 47.7207 0.0691523 48.5058C0.0706679 49.29 0.706655 49.9246 1.4906 49.9246C1.49155 49.9246 1.4925 49.9246 1.49325 49.9246L3.10416 49.9216L3.1159 56.1757L1.505 56.1788C0.719916 56.1803 0.0846873 56.8178 0.0862029 57.6029C0.0877185 58.3872 0.723705 59.0217 1.50765 59.0217C1.5086 59.0217 1.50955 59.0217 1.51031 59.0217L3.12121 59.0186L3.13295 65.2728L1.52205 65.2758C0.736967 65.2773 0.101738 65.9148 0.103253 66.6999C0.104769 67.4843 0.740756 68.1187 1.5247 68.1187C1.52565 68.1187 1.5266 68.1187 1.52736 68.1187L3.13826 68.1157L3.15 74.3699L1.5391 74.3729C0.754017 74.3744 0.118788 75.0119 0.120304 75.7972C0.12182 76.5811 0.757806 77.2158 1.54175 77.2158C1.5427 77.2158 1.54365 77.2158 1.5446 77.2158L3.1555 77.2128L3.16724 83.4669L1.55634 83.4699C0.771257 83.4715 0.136028 84.109 0.137544 84.8942C0.13906 85.6784 0.775046 86.3128 1.55899 86.3128C1.55994 86.3128 1.56089 86.3128 1.56184 86.3128L3.17274 86.3098L3.18448 92.564L1.57358 92.567C0.788497 92.5685 0.153268 93.206 0.154784 93.9913C0.1563 94.7754 0.792286 95.4099 1.57623 95.4099C1.57718 95.4099 1.57813 95.4099 1.57908 95.4099L4.61143 95.4042L12.1923 95.39L21.2894 95.3729C21.2899 95.3729 21.2903 95.3729 21.2909 95.3729L28.8663 95.3587C28.8666 95.3587 28.867 95.3587 28.8676 95.3587C28.8683 95.3587 28.8693 95.3587 28.8702 95.3587L37.9673 95.3417C37.9682 95.3417 37.9692 95.3415 37.9703 95.3415L45.5429 95.3273C45.5438 95.3273 45.5448 95.3275 45.5457 95.3275C45.5467 95.3275 45.5476 95.3275 45.5484 95.3275L54.6452 95.3102H54.646L62.2229 95.296H62.2234C62.2242 95.296 62.2253 95.296 62.2261 95.296L71.3232 95.279C71.3239 95.279 71.3247 95.279 71.3254 95.279L78.8993 95.2648C78.9001 95.2648 78.9006 95.2648 78.9014 95.2648C78.9023 95.2648 78.9031 95.2648 78.904 95.2648L87.9999 95.2475L95.582 95.2333C96.367 95.2318 97.0023 94.5943 97.0008 93.8092C96.9974 93.0239 96.3612 92.3895 95.5774 92.3895ZM86.4241 13.3767L86.4529 28.7279L80.1987 28.7397L80.1699 13.3884L86.4241 13.3767ZM80.3183 92.4181L80.204 31.582L86.4582 31.5702L86.5724 92.4062L80.737 92.4171L80.3183 92.4181ZM69.7632 22.505L69.8091 46.9531L63.5549 46.965L63.5091 22.5169L69.7632 22.505ZM63.5604 49.8077L69.8146 49.7958L69.8947 92.438L63.6405 92.4497L63.5604 49.8077ZM53.1539 58.9241L53.1656 65.1783L46.9116 65.1902L46.8999 58.936L53.1539 58.9241ZM46.9168 68.0329L53.1707 68.021L53.2166 92.469L46.9626 92.4808L46.9168 68.0329ZM36.442 40.7615L36.4708 56.1127L30.2167 56.1244L30.1879 40.7734L36.442 40.7615ZM30.222 58.9671L36.4761 58.9554L36.5392 92.5005L30.2851 92.5122L30.222 58.9671ZM19.8154 68.0839L19.8272 74.338L13.573 74.3498L13.5613 68.0956L19.8154 68.0839ZM13.5783 77.1925L19.8325 77.1807L19.8613 92.5319L14.1294 92.5427L13.6071 92.5437L13.5783 77.1925Z" fill="black"/>
</g>
<defs>
<clipPath id="clip0_6_157">
<rect width="97" height="97" fill="white"/>
</clipPath>
</defs>
</svg>
