<svg width="50" height="49" viewBox="0 0 50 49" fill="none" xmlns="http://www.w3.org/2000/svg">
<path d="M26.7188 24.7233C26.7188 20.8928 29.9031 17.7903 33.8281 17.7903C37.7562 17.7903 40.9375 20.8898 40.9375 24.7233C40.9375 28.5539 37.7562 31.6564 33.8281 31.6564C29.9062 31.6564 26.7188 28.5569 26.7188 24.7233Z" fill="#1ABCFE"/>
<path d="M12.5 38.5925C12.5 34.762 15.6844 31.6565 19.6094 31.6565H26.7188V38.5925C26.7188 42.4201 23.5344 45.5256 19.6094 45.5256C15.6844 45.5256 12.5 42.4201 12.5 38.5925Z" fill="#0ACF83"/>
<path d="M26.7188 3.92114V17.7902H33.8281C37.7562 17.7902 40.9375 14.6848 40.9375 10.8542C40.9375 7.02661 37.7562 3.92114 33.8281 3.92114H26.7188Z" fill="#FF7262"/>
<path d="M12.5 10.8542C12.5 14.6848 15.6844 17.7902 19.6094 17.7902H26.7188V3.92114H19.6094C15.6844 3.92114 12.5 7.02661 12.5 10.8542Z" fill="#F24E1E"/>
<path d="M12.5 24.7233C12.5 28.5539 15.6844 31.6564 19.6094 31.6564H26.7188V17.7903H19.6094C15.6844 17.7903 12.5 20.8898 12.5 24.7233Z" fill="#A259FF"/>
</svg>
