<svg width="50" height="49" viewBox="0 0 50 49" fill="none" xmlns="http://www.w3.org/2000/svg">
<path d="M4.03962 26.7526C2.82013 25.5929 2.82013 23.7126 4.03962 22.5529L22.7919 4.72035C24.0114 3.56066 25.9886 3.56066 27.2081 4.72035L45.9603 22.5529C47.1798 23.7126 47.1798 25.5929 45.9603 26.7526L27.2081 44.5851C25.9886 45.7448 24.0114 45.7448 22.7919 44.5851L4.03962 26.7526Z" fill="#EE513B"/>
<path d="M18.9827 8.39966L17.0838 10.2055L21.9883 14.8695C21.7898 15.2743 21.6791 15.7257 21.6791 16.2018C21.6791 17.5533 22.572 18.7065 23.8275 19.1569V30.5663C22.572 31.0166 21.6791 32.1698 21.6791 33.5214C21.6791 35.2652 23.1656 36.6788 24.9994 36.6788C26.8331 36.6788 28.3197 35.2652 28.3197 33.5214C28.3197 32.2961 27.5858 31.2337 26.5131 30.7104V19.1725L31.2014 23.6308C31.0127 24.0274 30.9077 24.4677 30.9077 24.9313C30.9077 26.6751 32.3942 28.0887 34.228 28.0887C36.0617 28.0887 37.5483 26.6751 37.5483 24.9313C37.5483 23.1874 36.0617 21.7738 34.228 21.7738C33.8716 21.7738 33.5284 21.8271 33.2066 21.9259L28.1714 17.1377C28.2678 16.842 28.3197 16.5276 28.3197 16.2018C28.3197 14.4579 26.8331 13.0443 24.9994 13.0443C24.6567 13.0443 24.3263 13.0937 24.0152 13.1853L18.9827 8.39966Z" fill="white"/>
</svg>
