<svg width="50" height="48" viewBox="0 0 50 48" fill="none" xmlns="http://www.w3.org/2000/svg">
<path d="M0 0.161377H50V47.7092H0V0.161377Z" fill="#F7DF1E"/>
<path d="M13.1468 39.8958L16.9732 37.6938C17.7113 38.9384 18.3829 39.9915 19.9936 39.9915C21.5375 39.9915 22.5109 39.4171 22.5109 37.1831V21.9905H27.2097V37.2463C27.2097 41.8743 24.357 43.9808 20.195 43.9808C16.4362 43.9808 14.2543 42.1295 13.1467 39.8955" fill="black"/>
<path d="M29.7619 39.4169L33.5878 37.3104C34.5949 38.8745 35.9039 40.0234 38.2196 40.0234C40.1665 40.0234 41.408 39.0977 41.408 37.821C41.408 36.289 40.1327 35.7464 37.9846 34.853L36.8102 34.3739C33.4202 33.0017 31.1713 31.2782 31.1713 27.6396C31.1713 24.2883 33.8563 21.7349 38.0519 21.7349C41.039 21.7349 43.1871 22.7244 44.7308 25.3097L41.0724 27.5438C40.2668 26.1714 39.3944 25.629 38.052 25.629C36.6759 25.629 35.8032 26.4588 35.8032 27.5438C35.8032 28.8843 36.6759 29.427 38.6894 30.2569L39.864 30.7357C43.8581 32.3635 46.1069 34.023 46.1069 37.7572C46.1069 41.779 42.7842 43.981 38.3204 43.981C33.9572 43.981 31.1378 42.0023 29.7619 39.4169Z" fill="black"/>
</svg>
