<svg width="50" height="48" viewBox="0 0 50 48" fill="none" xmlns="http://www.w3.org/2000/svg">
<path d="M25 44.6668C37.0812 44.6668 46.875 35.3534 46.875 23.8647C46.875 12.3759 37.0812 3.0625 25 3.0625C12.9188 3.0625 3.125 12.3759 3.125 23.8647C3.125 35.3534 12.9188 44.6668 25 44.6668Z" fill="#0769AD"/>
<path d="M35.402 20.0329C37.3661 20.0329 39.1644 19.41 40.5547 18.3769C39.1113 20.1855 36.7198 21.3679 34.0139 21.3679C29.6058 21.3679 26.0323 18.2299 26.0323 14.359C26.0323 12.2128 27.1309 10.2918 28.8613 9.0061C27.9533 10.1438 27.4205 11.5293 27.4205 13.024C27.4205 16.8949 30.9939 20.0329 35.402 20.0329Z" fill="#78CFF5"/>
<path d="M40.4788 24.8434C38.3613 26.4228 35.62 27.3756 32.6258 27.3756C25.9178 27.3756 20.4798 22.5939 20.4798 16.6953C20.4798 14.4075 21.298 12.2878 22.6908 10.5498C20.0645 12.5089 18.3977 15.4322 18.3977 18.6978C18.3977 24.5964 23.8356 29.3782 30.5436 29.3782C34.65 29.3782 38.2803 27.5864 40.4788 24.8434Z" fill="#78CFF5"/>
<path d="M40.625 30.9524C37.6077 33.6906 33.4277 35.3858 28.8086 35.3858C19.6089 35.3858 12.1512 28.6615 12.1512 20.3667C12.1512 17.7382 12.9 15.2675 14.2158 13.1184C11.2238 15.8336 9.375 19.5743 9.375 23.7042C9.375 31.9991 16.8327 38.7234 26.0323 38.7234C32.3167 38.7234 37.7884 35.5854 40.625 30.9524Z" fill="#78CFF5"/>
</svg>
