<svg width="50" height="50" viewBox="0 0 50 50" fill="none" xmlns="http://www.w3.org/2000/svg">
<path d="M25 49.9072C24.3123 49.9072 23.6704 49.7238 23.0743 49.4029L16.9763 45.7808C16.0593 45.2764 16.5178 45.093 16.7929 45.0013C18.0309 44.5887 18.2601 44.497 19.5439 43.7634C19.6815 43.6717 19.8649 43.7175 20.0024 43.8092L24.6791 46.6061C24.8625 46.6978 25.0917 46.6978 25.2293 46.6061L43.5232 36.0148C43.7066 35.9231 43.7983 35.7397 43.7983 35.5105V14.3738C43.7983 14.1446 43.7066 13.9612 43.5232 13.8695L25.2293 3.32409C25.0459 3.23239 24.8166 3.23239 24.6791 3.32409L6.38509 13.8695C6.20169 13.9612 6.10999 14.1904 6.10999 14.3738V35.5105C6.10999 35.6939 6.20169 35.9231 6.38509 36.0148L11.3827 38.9033C14.0878 40.2788 15.7842 38.6741 15.7842 37.0694V16.2078C15.7842 15.9327 16.0135 15.6576 16.3344 15.6576H18.6728C18.9479 15.6576 19.223 15.8869 19.223 16.2078V37.0694C19.223 40.6915 17.2514 42.8005 13.8127 42.8005C12.7582 42.8005 11.9329 42.8005 9.59456 41.6543L4.78036 38.9033C3.58827 38.2156 2.85468 36.9318 2.85468 35.5563V14.4197C2.85468 13.0442 3.58827 11.7604 4.78036 11.0727L23.0743 0.48142C24.2206 -0.160473 25.7794 -0.160473 26.9257 0.48142L45.2197 11.0727C46.4117 11.7604 47.1453 13.0442 47.1453 14.4197V35.5563C47.1453 36.9318 46.4117 38.2156 45.2197 38.9033L26.9257 49.4946C26.3296 49.7697 25.6419 49.9072 25 49.9072ZM30.6395 35.3729C22.6158 35.3729 20.9652 31.705 20.9652 28.5872C20.9652 28.3121 21.1945 28.037 21.5154 28.037H23.8996C24.1747 28.037 24.404 28.2204 24.404 28.4955C24.7708 30.9255 25.8253 32.1176 30.6853 32.1176C34.5367 32.1176 36.1873 31.2465 36.1873 29.1832C36.1873 27.9911 35.7288 27.12 29.7225 26.524C24.7249 26.0196 21.6071 24.9192 21.6071 20.9303C21.6071 17.2165 24.7249 15.0157 29.9518 15.0157C35.8205 15.0157 38.709 17.0331 39.0758 21.4347C39.0758 21.5722 39.03 21.7098 38.9383 21.8473C38.8466 21.939 38.709 22.0307 38.5715 22.0307H36.1873C35.958 22.0307 35.7288 21.8473 35.6829 21.6181C35.1328 19.0963 33.7114 18.271 29.9518 18.271C25.7336 18.271 25.2293 19.7382 25.2293 20.8386C25.2293 22.1683 25.8253 22.5809 31.5106 23.3145C37.1501 24.0481 39.8094 25.1026 39.8094 29.0457C39.7636 33.0804 36.4624 35.3729 30.6395 35.3729Z" fill="#539E43"/>
</svg>
