<svg width="50" height="49" viewBox="0 0 50 49" fill="none" xmlns="http://www.w3.org/2000/svg">
<path d="M2.08331 3.38354H47.9168V45.7805H2.08331V3.38354Z" fill="url(#paint0_radial_6_74)"/>
<path d="M2.08331 3.38348H47.9168V45.7804H2.08331V3.38348ZM0 47.7616H50.0001V1.40234H0V47.7616ZM33.7084 20.4215C32.0625 20.4215 31.5001 21.2139 31.5001 21.8677C31.5001 22.5809 31.8751 23.0762 34.0834 24.1659C37.3543 25.6716 38.3751 27.1178 38.3751 29.2377C38.3751 32.4075 35.8335 34.1113 32.3959 34.1113C30.5834 34.1113 29.0208 33.7547 28.125 33.2595C27.9792 33.2 27.9584 33.101 27.9584 32.9424V30.0301C27.9584 29.832 28.0626 29.7725 28.2085 29.8716C29.521 30.684 31.0209 31.0405 32.3959 31.0405C34.0418 31.0405 34.7293 30.3868 34.7293 29.4952C34.7293 28.782 34.2501 28.148 32.1459 27.1178C29.1875 25.7706 27.9584 24.4037 27.9584 22.1253C27.9584 19.5696 30.0626 17.4498 33.7084 17.4498C35.5001 17.4498 36.7501 17.7073 37.4376 18.0045C37.6042 18.1035 37.6459 18.262 37.6459 18.4007V21.1148C37.6459 21.2733 37.5417 21.3724 37.3333 21.3129C36.4167 20.7583 35.0626 20.4215 33.7084 20.4215ZM15.7917 22.7791C16.2709 22.8187 16.6459 22.8187 17.4792 22.8187C19.9168 22.8187 22.2084 22.0065 22.2084 18.8564C22.2084 16.3404 20.5625 15.0724 17.7917 15.0724C16.9584 15.0724 16.1667 15.112 15.7917 15.1318V22.7791ZM12.0834 12.2591C12.0834 12.1204 12.3751 12.0213 12.5417 12.0213C13.8751 11.9619 15.8542 11.9223 17.9167 11.9223C23.6875 11.9223 25.9375 14.9336 25.9375 18.7771C25.9375 23.8092 22.1042 25.9687 17.3959 25.9687C16.6042 25.9687 16.3334 25.9291 15.7708 25.9291V33.5368C15.7708 33.6953 15.7083 33.7745 15.5209 33.7745H12.3334C12.1667 33.7745 12.0833 33.7151 12.0833 33.5368V12.2591H12.0834Z" fill="#31C5F0"/>
<defs>
<radialGradient id="paint0_radial_6_74" cx="0" cy="0" r="1" gradientUnits="userSpaceOnUse" gradientTransform="translate(17.1786 12.8847) scale(34.8334 32.0711)">
<stop stop-color="#34364E" stop-opacity="0.98"/>
<stop offset="1" stop-color="#0C0824"/>
</radialGradient>
</defs>
</svg>
