<svg width="50" height="48" viewBox="0 0 50 48" fill="none" xmlns="http://www.w3.org/2000/svg">
<path d="M29.1858 23.7583C29.1858 21.627 27.3119 19.8989 25 19.8989C22.6884 19.8989 20.8142 21.627 20.8142 23.7583C20.8142 25.8899 22.6884 27.6179 25 27.6179C27.3119 27.6179 29.1858 25.8899 29.1858 23.7583Z" fill="#53C1DE"/>
<path fill-rule="evenodd" clip-rule="evenodd" d="M38.5944 16.5931C39.4783 13.2812 40.5894 7.13969 36.6725 5.05751C32.7739 2.98441 27.7006 6.95685 25.0217 9.3413C22.3506 6.98061 17.1348 3.02515 13.2213 5.11394C9.32423 7.19399 10.526 13.2337 11.4295 16.5664C7.79423 17.5184 1.5625 19.5689 1.5625 23.7583C1.5625 27.9358 7.78775 30.1667 11.4015 31.1178C10.4947 34.4689 9.35306 40.4223 13.2551 42.4977C17.1833 44.5861 22.3828 40.7248 25.0866 38.3143C27.7827 40.7128 32.8072 44.5994 36.7066 42.5181C40.6181 40.4303 39.5994 34.3711 38.6958 31.0191C42.1989 30.0659 48.4375 27.8836 48.4375 23.7583C48.4375 19.6091 42.1723 17.542 38.5944 16.5931ZM38.1503 29.2428C37.557 27.5111 36.7563 25.6697 35.7767 23.7675C36.7117 21.9101 37.4814 20.0925 38.0581 18.372C40.6811 19.0732 46.4352 20.6757 46.4352 23.7583C46.4352 26.8698 40.9134 28.4875 38.1503 29.2428ZM35.7031 40.9202C32.7938 42.4729 28.472 38.7562 26.4809 36.9899C27.8019 35.6578 29.1219 34.1093 30.4102 32.3897C32.6764 32.2044 34.8172 31.9013 36.7588 31.4875C37.3947 33.8585 38.6253 39.3605 35.7031 40.9202ZM14.2557 40.8981C11.346 39.3511 12.6759 34.0385 13.3431 31.5701C15.263 31.9617 17.3884 32.2435 19.66 32.4133C20.9567 34.0959 22.315 35.6425 23.6838 36.9971C21.9927 38.5054 17.1789 42.4521 14.2557 40.8981ZM3.56483 23.7583C3.56483 20.6351 9.28448 19.0442 11.9672 18.3448C12.5539 20.1039 13.3234 21.9433 14.2519 23.8033C13.3113 25.6909 12.5309 27.5594 11.9388 29.3393C9.38077 28.6642 3.56483 26.8833 3.56483 23.7583ZM14.2245 6.71184C17.1461 5.1526 21.6792 8.94999 23.6186 10.6592C22.2569 12.0075 20.9111 13.5425 19.6255 15.2154C17.4209 15.4038 15.3105 15.7063 13.3705 16.1117C12.6426 13.4238 11.3061 8.26941 14.2245 6.71184ZM31.8427 17.2222C33.3383 17.3962 34.7713 17.6277 36.1167 17.9109C35.7128 19.1047 35.2094 20.353 34.6164 21.6326C33.7569 20.1289 32.8342 18.6553 31.8427 17.2222ZM25.0223 11.9786C25.9459 12.9011 26.8709 13.9313 27.7809 15.049C25.9352 14.9685 24.0864 14.9682 22.2406 15.0478C23.1514 13.9405 24.0844 12.9118 25.0223 11.9786ZM15.4008 21.6312C14.8176 20.3561 14.3187 19.1023 13.9113 17.8915C15.2487 17.6155 16.675 17.39 18.1609 17.2188C17.1666 18.6488 16.2455 20.1218 15.4008 21.6312ZM18.2036 30.4295C16.6686 30.2716 15.2207 30.0575 13.8837 29.7891C14.2976 28.557 14.8075 27.2762 15.4031 25.9735C16.2594 27.4988 17.1945 28.986 18.2036 30.4295ZM25.0778 35.6684C24.1288 34.7241 23.182 33.6797 22.2575 32.5564C24.1137 32.6236 25.9736 32.6237 27.8297 32.5473C26.9169 33.6911 25.9952 34.7371 25.0778 35.6684ZM34.6355 25.9073C35.262 27.2241 35.7902 28.4979 36.2097 29.7092C34.8505 29.9952 33.3831 30.2255 31.837 30.3965C32.8359 28.9362 33.7733 27.4398 34.6355 25.9073ZM29.2927 30.6203C26.4533 30.8074 23.5963 30.8053 20.7559 30.6356C19.142 28.4619 17.7053 26.1759 16.4652 23.8027C17.6994 21.4344 19.1256 19.1528 20.7319 16.9826C23.5742 16.7845 26.4341 16.7839 29.2764 16.9837C30.8689 19.1539 32.293 21.4295 33.5558 23.7764C32.308 26.1435 30.8742 28.4297 29.2927 30.6203ZM35.6723 6.65696C38.5947 8.21109 37.2939 13.7307 36.6555 16.1309C34.7108 15.717 32.5989 15.4092 30.388 15.2178C29.0998 13.5268 27.7653 11.9891 26.4256 10.6582C28.3898 8.91222 32.7783 5.11803 35.6723 6.65696Z" fill="#53C1DE"/>
</svg>
